<?xml version="1.0" encoding="UTF-8"?><svg width="326px" height="181px" xmlns="http://www.w3.org/2000/svg"><g fill="none" fill-rule="evenodd"><path d="M253.087 59.911V41.32c0-18.065-14.625-21.383-29.741-21.383-7.25 0-14.624 1.229-20.277 4.424-5.653 3.318-9.586 8.725-9.955 17.082h19.541c.983-5.407 4.67-7.988 10.446-7.988 4.301 0 10.077 1.843 10.077 6.636 0 3.933-1.966 5.162-5.53 5.899-14.502 2.95-37.115 1.352-37.115 22.121 0 13.15 9.586 19.295 21.753 19.295 7.619 0 15.607-2.212 21.015-7.865 0 3.557-.021-1.63-.021 6.022h19.757V59.911h.05zm-32.936 14.591c-4.67 0-8.725-2.089-8.725-7.251 0-5.038 3.932-7.005 8.602-8.111 4.547-1.229 9.955-1.598 12.904-3.441.492 13.15-2.826 18.803-12.781 18.803z" fill="#009036"/><path d="M278.985 47.313c1.229-7.743 6.144-13.027 13.518-13.027 7.005 0 12.044 5.899 12.412 13.027h-25.93zm46.823 11.675c.983-21.63-10.446-38.835-33.305-38.835-18.803 0-34.411 14.01-34.411 33.55 0 21.384 14.133 33.919 34.903 33.919 14.255 0 27.897-6.39 31.707-21.138h-19.541c-1.966 4.671-6.882 7.006-11.921 7.006-8.848 0-13.887-5.777-14.255-14.502h46.823z" fill="#E2001A"/><path d="M186.668 55.085c0-17.943-8.48-35.148-28.512-35.148-7.374 0-13.518 3.195-17.574 9.217h-.246v-9.217h-19.909v90.293l20.893 16.158V78.68h.245c4.302 5.776 10.324 8.726 18.189 8.726 18.065 0 26.914-15.731 26.914-32.321zm-20.892-2.09c0 8.726-3.196 18.435-12.536 18.435-9.463 0-12.658-7.251-12.658-18.435 0-13.149 7.128-17.082 12.781-17.082 9.217 0 12.413 8.971 12.413 17.082zm-60.468-13.916c2.826 0 6.702.492 9.405 1.229V19.937h-6.579c-8.972 0-15.853 5.132-18.926 13.243h-.245V19.937H68.685v50.668l20.892 16.092V54.195c0-7.988 5.408-15.116 15.731-15.116zm-42.387 1.414h.05v-18.59C62.971 3.837 48.346.519 33.23.519c-7.251 0-14.624 1.229-20.277 4.425-5.654 3.318-9.586 8.725-9.955 17.082h19.54c.984-5.407 4.67-7.988 10.446-7.988 4.302 0 10.078 1.843 10.078 6.636 0 3.933-1.966 5.162-5.53 5.899C23.03 29.523.417 27.925.417 48.694c0 13.15 9.586 19.295 21.753 19.295 7.619 0 15.607-2.212 21.015-7.866 0 3.558-.021-1.63-.021 6.022h19.757V40.493zM30.035 55.085c-4.67 0-8.726-2.09-8.726-7.251 0-5.039 3.933-7.005 8.603-8.111 4.547-1.229 9.955-1.598 12.904-3.441.492 13.15-2.826 18.803-12.781 18.803zM159.306 171.171c.19-1.197.95-2.014 2.09-2.014 1.083 0 1.862.912 1.919 2.014h-4.009zm7.239 1.805c.152-3.344-1.615-6.004-5.149-6.004-2.907 0-5.32 2.166-5.32 5.187 0 3.306 2.185 5.244 5.396 5.244 2.204 0 4.313-.988 4.902-3.268h-3.021c-.304.722-1.064 1.083-1.843 1.083-1.368 0-2.147-.893-2.204-2.242h7.239zm1.809 4.142h3.23v-4.807c0-2.014.494-2.679 1.653-2.679.874 0 1.216.722 1.216 1.881v5.605h3.23v-4.826c0-1.596.133-2.66 1.52-2.66.836 0 1.349.627 1.349 1.691v5.795h3.23v-5.89c0-1.881-.342-4.256-3.477-4.256-1.33 0-2.299.551-3.078 1.596-.532-1.197-1.634-1.596-2.869-1.596-1.197 0-2.242.646-2.831 1.634h-.038v-1.349h-3.135v9.861zm17.879 0h3.229v-9.861h-3.229v9.861zm0-11.096h3.229v-2.47h-3.229v2.47zm5.697 11.096h3.23v-13.566h-3.23v13.566zm5.698 0h3.23v-9.861h-3.23v9.861zm0-11.096h3.23v-2.47h-3.23v2.47zm8.389 8.265c0-.779.608-1.083 1.33-1.254.703-.19 1.539-.247 1.995-.532.076 2.033-.437 2.907-1.976 2.907-.722 0-1.349-.323-1.349-1.121zm.19-3.99c.152-.836.722-1.235 1.615-1.235.665 0 1.558.285 1.558 1.026 0 .608-.304.798-.855.912-2.242.456-5.738.209-5.738 3.42 0 2.033 1.482 2.983 3.363 2.983 1.178 0 2.413-.342 3.249-1.216.038.323.076.627.19.931h3.249c-.38-.779-.38-1.691-.38-2.527v-4.313c0-2.793-2.261-3.306-4.598-3.306-1.121 0-2.261.19-3.135.684-.874.513-1.482 1.349-1.539 2.641h3.021zm8.508 3.021h5.909v-2.736h-5.909v2.736zm8.276 3.8h3.23v-4.883c0-1.235.836-2.337 2.432-2.337.437 0 .817.076 1.235.19v-2.945a3.44 3.44 0 0 0-.76-.076c-1.387 0-2.489.665-2.964 1.919h-.038v-1.729h-3.135v9.861zm11.029-4.921c0-1.254.456-2.755 1.957-2.755 1.501 0 1.976 1.501 1.976 2.755s-.475 2.736-1.976 2.736-1.957-1.482-1.957-2.736zm-3.23 0c0 2.964 2.128 5.206 5.187 5.206s5.206-2.242 5.206-5.206c0-2.964-2.147-5.225-5.206-5.225-3.059 0-5.187 2.261-5.187 5.225zm12.27 4.921h3.23v-4.807c0-2.014.494-2.679 1.653-2.679.874 0 1.216.722 1.216 1.881v5.605h3.23v-4.826c0-1.596.133-2.66 1.52-2.66.836 0 1.349.627 1.349 1.691v5.795h3.23v-5.89c0-1.881-.342-4.256-3.477-4.256-1.33 0-2.299.551-3.078 1.596-.532-1.197-1.634-1.596-2.869-1.596-1.197 0-2.242.646-2.831 1.634h-.038v-1.349h-3.135v9.861zm20.526-2.831c0-.779.608-1.083 1.33-1.254.703-.19 1.539-.247 1.995-.532.076 2.033-.437 2.907-1.976 2.907-.722 0-1.349-.323-1.349-1.121zm.19-3.99c.152-.836.722-1.235 1.615-1.235.665 0 1.558.285 1.558 1.026 0 .608-.304.798-.855.912-2.242.456-5.738.209-5.738 3.42 0 2.033 1.482 2.983 3.363 2.983 1.178 0 2.413-.342 3.249-1.216.038.323.076.627.19.931h3.249c-.38-.779-.38-1.691-.38-2.527v-4.313c0-2.793-2.261-3.306-4.598-3.306-1.121 0-2.261.19-3.135.684-.874.513-1.482 1.349-1.539 2.641h3.021zm15.063 1.634c0 1.235-.589 2.299-1.957 2.299-1.33 0-1.862-1.159-1.862-2.318 0-1.216.456-2.47 1.881-2.47 1.444 0 1.938 1.235 1.938 2.489zm3.059-4.674h-3.097v1.235h-.038c-.57-1.007-1.463-1.52-2.641-1.52-2.793 0-4.332 2.204-4.332 4.826 0 2.774 1.349 4.902 4.332 4.902a3.122 3.122 0 0 0 2.622-1.444h.038v.931c0 1.216-.152 2.299-1.691 2.299-.494 0-.893-.057-1.178-.209-.304-.152-.475-.418-.551-.855h-3.23c.38 2.641 2.546 3.154 4.845 3.154 4.617 0 4.921-3.04 4.921-4.655v-8.664zm2.331 9.861h3.23v-5.377c0-1.083.532-2.109 1.748-2.109 1.767 0 1.615 1.368 1.615 2.717v4.769h3.23v-6.327c0-1.425-.266-3.819-3.553-3.819-1.178 0-2.508.627-3.097 1.634h-.038v-1.349h-3.135v9.861zm14.892-2.831c0-.779.608-1.083 1.33-1.254.703-.19 1.539-.247 1.995-.532.076 2.033-.437 2.907-1.976 2.907-.722 0-1.349-.323-1.349-1.121zm.19-3.99c.152-.836.722-1.235 1.615-1.235.665 0 1.558.285 1.558 1.026 0 .608-.304.798-.855.912-2.242.456-5.738.209-5.738 3.42 0 2.033 1.482 2.983 3.363 2.983 1.178 0 2.413-.342 3.249-1.216.038.323.076.627.19.931h3.249c-.38-.779-.38-1.691-.38-2.527v-4.313c0-2.793-2.261-3.306-4.598-3.306-1.121 0-2.261.19-3.135.684-.874.513-1.482 1.349-1.539 2.641h3.021zM159.249 155.987c0-.779.608-1.083 1.33-1.254.703-.19 1.539-.247 1.995-.532.076 2.033-.437 2.907-1.976 2.907-.722 0-1.349-.323-1.349-1.121zm.19-3.99c.152-.836.722-1.235 1.615-1.235.665 0 1.558.285 1.558 1.026 0 .608-.304.798-.855.912-2.242.456-5.738.209-5.738 3.42 0 2.033 1.482 2.983 3.363 2.983 1.178 0 2.413-.342 3.249-1.216.038.323.076.627.19.931h3.249c-.38-.779-.38-1.691-.38-2.527v-4.313c0-2.793-2.261-3.306-4.598-3.306-1.121 0-2.261.19-3.135.684-.874.513-1.482 1.349-1.539 2.641h3.021zm8.614 6.821h3.23v-4.807c0-2.014.494-2.679 1.653-2.679.874 0 1.216.722 1.216 1.881v5.605h3.23v-4.826c0-1.596.133-2.66 1.52-2.66.836 0 1.349.627 1.349 1.691v5.795h3.23v-5.89c0-1.881-.342-4.256-3.477-4.256-1.33 0-2.299.551-3.078 1.596-.532-1.197-1.634-1.596-2.869-1.596-1.197 0-2.242.646-2.831 1.634h-.038v-1.349h-3.135v9.861zm17.82 0h3.078v-1.14h.038c.627.931 1.577 1.425 2.717 1.425 3.097 0 4.408-2.66 4.408-5.434 0-2.565-1.368-4.997-4.161-4.997-1.216 0-2.147.456-2.812 1.368h-.038v-4.788h-3.23v13.566zm5.092-7.676c1.425 0 1.919 1.387 1.919 2.641 0 1.349-.494 2.85-1.938 2.85-1.463 0-1.957-1.121-1.957-2.85 0-2.033 1.102-2.641 1.976-2.641zm7.18 7.676h3.23v-9.861h-3.23v9.861zm0-11.096h3.23v-2.47h-3.23v2.47zm8.387 5.149c.19-1.197.95-2.014 2.09-2.014 1.083 0 1.862.912 1.919 2.014h-4.009zm7.239 1.805c.152-3.344-1.615-6.004-5.149-6.004-2.907 0-5.32 2.166-5.32 5.187 0 3.306 2.185 5.244 5.396 5.244 2.204 0 4.313-.988 4.902-3.268h-3.021c-.304.722-1.064 1.083-1.843 1.083-1.368 0-2.147-.893-2.204-2.242h7.239zm1.808 4.142h3.23v-5.377c0-1.083.532-2.109 1.748-2.109 1.767 0 1.615 1.368 1.615 2.717v4.769h3.23v-6.327c0-1.425-.266-3.819-3.553-3.819-1.178 0-2.508.627-3.097 1.634h-.038v-1.349h-3.135v9.861zm18.001-9.861h-1.995v-2.983h-3.23v2.983h-1.634v2.09h1.634v4.389c0 2.679.703 3.477 3.458 3.477.589 0 1.178-.076 1.767-.095v-2.375c-.285 0-.57.038-.836.038-.703 0-1.159-.171-1.159-.95v-4.484h1.995v-2.09zm4.254 3.914c.19-1.197.95-2.014 2.09-2.014 1.083 0 1.862.912 1.919 2.014h-4.009zm7.239 1.805c.152-3.344-1.615-6.004-5.149-6.004-2.907 0-5.32 2.166-5.32 5.187 0 3.306 2.185 5.244 5.396 5.244 2.204 0 4.313-.988 4.902-3.268h-3.021c-.304.722-1.064 1.083-1.843 1.083-1.368 0-2.147-.893-2.204-2.242h7.239zm10.734-1.805c.19-1.197.95-2.014 2.09-2.014 1.083 0 1.862.912 1.919 2.014h-4.009zm7.239 1.805c.152-3.344-1.615-6.004-5.149-6.004-2.907 0-5.32 2.166-5.32 5.187 0 3.306 2.185 5.244 5.396 5.244 2.204 0 4.313-.988 4.902-3.268h-3.021c-.304.722-1.064 1.083-1.843 1.083-1.368 0-2.147-.893-2.204-2.242h7.239zm1.809 4.142h3.23v-5.377c0-1.083.532-2.109 1.748-2.109 1.767 0 1.615 1.368 1.615 2.717v4.769h3.23v-6.327c0-1.425-.266-3.819-3.553-3.819-1.178 0-2.508.627-3.097 1.634h-.038v-1.349h-3.135v9.861zm14.886-5.947c.19-1.197.95-2.014 2.09-2.014 1.083 0 1.862.912 1.919 2.014h-4.009zm7.239 1.805c.152-3.344-1.615-6.004-5.149-6.004-2.907 0-5.32 2.166-5.32 5.187 0 3.306 2.185 5.244 5.396 5.244 2.204 0 4.313-.988 4.902-3.268h-3.021c-.304.722-1.064 1.083-1.843 1.083-1.368 0-2.147-.893-2.204-2.242h7.239zm1.866 4.142h3.23v-4.883c0-1.235.836-2.337 2.432-2.337.437 0 .817.076 1.235.19v-2.945a3.44 3.44 0 0 0-.76-.076c-1.387 0-2.489.665-2.964 1.919h-.038v-1.729h-3.135v9.861zm14.867-5.187c0 1.235-.589 2.299-1.957 2.299-1.33 0-1.862-1.159-1.862-2.318 0-1.216.456-2.47 1.881-2.47 1.444 0 1.938 1.235 1.938 2.489zm3.059-4.674h-3.097v1.235h-.038c-.57-1.007-1.463-1.52-2.641-1.52-2.793 0-4.332 2.204-4.332 4.826 0 2.774 1.349 4.902 4.332 4.902a3.122 3.122 0 0 0 2.622-1.444h.038v.931c0 1.216-.152 2.299-1.691 2.299-.494 0-.893-.057-1.178-.209-.304-.152-.475-.418-.551-.855h-3.23c.38 2.641 2.546 3.154 4.845 3.154 4.617 0 4.921-3.04 4.921-4.655v-8.664zm2.383 9.861h3.23v-9.861h-3.23v9.861zm0-11.096h3.23v-2.47h-3.23v2.47zm8.388 8.265c0-.779.608-1.083 1.33-1.254.703-.19 1.539-.247 1.995-.532.076 2.033-.437 2.907-1.976 2.907-.722 0-1.349-.323-1.349-1.121zm.19-3.99c.152-.836.722-1.235 1.615-1.235.665 0 1.558.285 1.558 1.026 0 .608-.304.798-.855.912-2.242.456-5.738.209-5.738 3.42 0 2.033 1.482 2.983 3.363 2.983 1.178 0 2.413-.342 3.249-1.216.038.323.076.627.19.931h3.249c-.38-.779-.38-1.691-.38-2.527v-4.313c0-2.793-2.261-3.306-4.598-3.306-1.121 0-2.261.19-3.135.684-.874.513-1.482 1.349-1.539 2.641h3.021zM161.643 132.842c1.425 0 1.919 1.387 1.919 2.641 0 1.349-.494 2.85-1.938 2.85-1.463 0-1.957-1.121-1.957-2.85 0-2.033 1.102-2.641 1.976-2.641zm-5.092 10.982h3.23v-4.37h.038c.665.893 1.596 1.349 2.812 1.349 2.793 0 4.161-2.432 4.161-4.997 0-2.774-1.311-5.434-4.408-5.434-1.14 0-2.09.494-2.717 1.425h-.038v-1.14h-3.078v13.167zm12.255-3.306h3.23v-4.883c0-1.235.836-2.337 2.432-2.337.437 0 .817.076 1.235.19v-2.945a3.44 3.44 0 0 0-.76-.076c-1.387 0-2.489.665-2.964 1.919h-.038v-1.729h-3.135v9.861zm11.02-5.947c.19-1.197.95-2.014 2.09-2.014 1.083 0 1.862.912 1.919 2.014h-4.009zm7.239 1.805c.152-3.344-1.615-6.004-5.149-6.004-2.907 0-5.32 2.166-5.32 5.187 0 3.306 2.185 5.244 5.396 5.244 2.204 0 4.313-.988 4.902-3.268h-3.021c-.304.722-1.064 1.083-1.843 1.083-1.368 0-2.147-.893-2.204-2.242h7.239zm10.778-5.719h-3.287l-1.824 6.517h-.038l-1.805-6.517h-3.363l3.287 9.861h3.724l3.306-9.861zm3.699 3.914c.19-1.197.95-2.014 2.09-2.014 1.083 0 1.862.912 1.919 2.014h-4.009zm7.239 1.805c.152-3.344-1.615-6.004-5.149-6.004-2.907 0-5.32 2.166-5.32 5.187 0 3.306 2.185 5.244 5.396 5.244 2.204 0 4.313-.988 4.902-3.268h-3.021c-.304.722-1.064 1.083-1.843 1.083-1.368 0-2.147-.893-2.204-2.242h7.239zm1.809 4.142h3.23v-5.377c0-1.083.532-2.109 1.748-2.109 1.767 0 1.615 1.368 1.615 2.717v4.769h3.23v-6.327c0-1.425-.266-3.819-3.553-3.819-1.178 0-2.508.627-3.097 1.634h-.038v-1.349h-3.135v9.861zm11.595 0h9.386v-2.47h-5.282l4.921-4.94v-2.451h-8.626v2.47h4.522l-4.921 4.883v2.508zm11.286 0h3.23v-9.861h-3.23v9.861zm0-11.096h3.23v-2.47h-3.23v2.47zm8.387 6.175c0-1.254.456-2.755 1.957-2.755 1.501 0 1.976 1.501 1.976 2.755s-.475 2.736-1.976 2.736-1.957-1.482-1.957-2.736zm-3.23 0c0 2.964 2.128 5.206 5.187 5.206s5.206-2.242 5.206-5.206c0-2.964-2.147-5.225-5.206-5.225-3.059 0-5.187 2.261-5.187 5.225zm12.27 4.921h3.23v-5.377c0-1.083.532-2.109 1.748-2.109 1.767 0 1.615 1.368 1.615 2.717v4.769h3.23v-6.327c0-1.425-.266-3.819-3.553-3.819-1.178 0-2.508.627-3.097 1.634h-.038v-1.349h-3.135v9.861zm14.886-5.947c.19-1.197.95-2.014 2.09-2.014 1.083 0 1.862.912 1.919 2.014h-4.009zm7.239 1.805c.152-3.344-1.615-6.004-5.149-6.004-2.907 0-5.32 2.166-5.32 5.187 0 3.306 2.185 5.244 5.396 5.244 2.204 0 4.313-.988 4.902-3.268h-3.021c-.304.722-1.064 1.083-1.843 1.083-1.368 0-2.147-.893-2.204-2.242h7.239zM159.249 119.387c0-.779.608-1.083 1.33-1.254.703-.19 1.539-.247 1.995-.532.076 2.033-.437 2.907-1.976 2.907-.722 0-1.349-.323-1.349-1.121zm.19-3.99c.152-.836.722-1.235 1.615-1.235.665 0 1.558.285 1.558 1.026 0 .608-.304.798-.855.912-2.242.456-5.738.209-5.738 3.42 0 2.033 1.482 2.983 3.363 2.983 1.178 0 2.413-.342 3.249-1.216.038.323.076.627.19.931h3.249c-.38-.779-.38-1.691-.38-2.527v-4.313c0-2.793-2.261-3.306-4.598-3.306-1.121 0-2.261.19-3.135.684-.874.513-1.482 1.349-1.539 2.641h3.021zm15.063 1.634c0 1.235-.589 2.299-1.957 2.299-1.33 0-1.862-1.159-1.862-2.318 0-1.216.456-2.47 1.881-2.47 1.444 0 1.938 1.235 1.938 2.489zm3.059-4.674h-3.097v1.235h-.038c-.57-1.007-1.463-1.52-2.641-1.52-2.793 0-4.332 2.204-4.332 4.826 0 2.774 1.349 4.902 4.332 4.902a3.122 3.122 0 0 0 2.622-1.444h.038v.931c0 1.216-.152 2.299-1.691 2.299-.494 0-.893-.057-1.178-.209-.304-.152-.475-.418-.551-.855h-3.23c.38 2.641 2.546 3.154 4.845 3.154 4.617 0 4.921-3.04 4.921-4.655v-8.664zm5.05 3.914c.19-1.197.95-2.014 2.09-2.014 1.083 0 1.862.912 1.919 2.014h-4.009zm7.239 1.805c.152-3.344-1.615-6.004-5.149-6.004-2.907 0-5.32 2.166-5.32 5.187 0 3.306 2.185 5.244 5.396 5.244 2.204 0 4.313-.988 4.902-3.268h-3.021c-.304.722-1.064 1.083-1.843 1.083-1.368 0-2.147-.893-2.204-2.242h7.239zm1.809 4.142h3.23v-5.377c0-1.083.532-2.109 1.748-2.109 1.767 0 1.615 1.368 1.615 2.717v4.769h3.23v-6.327c0-1.425-.266-3.819-3.553-3.819-1.178 0-2.508.627-3.097 1.634h-.038v-1.349h-3.135v9.861zm11.595 0h9.386v-2.47h-5.282l4.921-4.94v-2.451h-8.626v2.47h4.522l-4.921 4.883v2.508zm11.286 0h3.23v-9.861h-3.23v9.861zm0-11.096h3.23v-2.47h-3.23v2.47zm8.388 8.265c0-.779.608-1.083 1.33-1.254.703-.19 1.539-.247 1.995-.532.076 2.033-.437 2.907-1.976 2.907-.722 0-1.349-.323-1.349-1.121zm.19-3.99c.152-.836.722-1.235 1.615-1.235.665 0 1.558.285 1.558 1.026 0 .608-.304.798-.855.912-2.242.456-5.738.209-5.738 3.42 0 2.033 1.482 2.983 3.363 2.983 1.178 0 2.413-.342 3.249-1.216.038.323.076.627.19.931h3.249c-.38-.779-.38-1.691-.38-2.527v-4.313c0-2.793-2.261-3.306-4.598-3.306-1.121 0-2.261.19-3.135.684-.874.513-1.482 1.349-1.539 2.641h3.021z" fill="#000"/></g></svg>