<?xml version="1.0" encoding="UTF-8"?><svg id="Layer_1" xmlns="http://www.w3.org/2000/svg" viewBox="0 0 446.46 144.88"><defs><style>.cls-1{fill:#60269e;}</style></defs><path class="cls-1" d="M1.42,2.14H15.85V115.28H1.42V2.14Z"/><path class="cls-1" d="M231.07,20.67c-1.6-1.6-2.4-3.63-2.4-6.08s.8-4.5,2.4-6.15c1.6-1.65,3.63-2.47,6.08-2.47s4.5,.82,6.15,2.47c1.65,1.65,2.47,3.7,2.47,6.15s-.82,4.48-2.47,6.08c-1.65,1.6-3.7,2.4-6.15,2.4s-4.48-.8-6.08-2.4Zm-1.13,9.76h14.42V115.28h-14.42V30.43Z"/><path class="cls-1" d="M104.09,41.6c-8.39-8.39-18.81-12.59-31.25-12.59s-22.86,4.2-31.25,12.59c-8.39,8.39-12.59,18.81-12.59,31.25s4.2,22.86,12.59,31.25c8.3,8.3,18.58,12.48,30.84,12.58v-13.86c-7.08-.08-13.26-2.32-18.53-6.71-5.37-4.48-8.72-10.25-10.04-17.32H116.25c.28-1.04,.42-3.02,.42-5.94,0-12.44-4.2-22.86-12.59-31.25Zm-60.24,25.31c1.32-7.07,4.67-12.84,10.04-17.32,5.37-4.48,11.69-6.72,18.95-6.72s13.58,2.24,18.95,6.72c5.37,4.48,8.63,10.25,9.76,17.32H43.85Z"/><path class="cls-1" d="M202.07,76.17c-.65,7.04-3.43,13.05-8.33,18.03-5.66,5.75-12.63,8.63-20.93,8.63s-15.27-2.88-20.93-8.63c-5.66-5.75-8.49-12.87-8.49-21.35s2.83-15.48,8.49-21.28c5.66-5.8,12.63-8.7,20.93-8.7,.24,0,.48,.01,.72,.02v-13.86c-.24,0-.48-.02-.72-.02-12.44,0-22.86,4.2-31.25,12.59-8.39,8.39-12.59,18.81-12.59,31.25v70.71h14.42v-39.31c8.11,8.3,18.24,12.44,30.4,12.44s22.34-4.2,30.55-12.59c7.46-7.63,11.52-16.95,12.19-27.93h-14.47Z"/><path class="cls-1" d="M330.76,2.14V41.32c-8.2-8.2-18.29-12.3-30.26-12.3s-22.37,4.2-30.62,12.59c-8.25,8.39-12.37,18.81-12.37,31.25,0,.37,.02,.73,.02,1.1h14.42c-.01-.36-.02-.73-.02-1.1,0-8.39,2.83-15.48,8.48-21.28,5.66-5.8,12.63-8.7,20.93-8.7s15.27,2.9,20.93,8.7c5.66,5.8,8.48,12.89,8.48,21.28s-2.83,15.6-8.48,21.35c-5.66,5.75-12.63,8.63-20.93,8.63-1.54,0-3.03-.1-4.48-.3v13.97c1.46,.13,2.96,.19,4.48,.19,12.44,0,22.86-4.2,31.25-12.59,8.39-8.39,12.59-18.81,12.59-31.25V2.14h-14.42Z"/><path class="cls-1" d="M430.74,72.84h0c0,8.5-2.83,15.62-8.48,21.37-5.66,5.75-12.63,8.63-20.93,8.63s-15.27-2.88-20.93-8.63c-5.66-5.75-8.48-12.87-8.48-21.35s2.83-15.48,8.48-21.28c5.66-5.8,12.63-8.7,20.93-8.7,.75,0,1.49,.03,2.22,.08v-13.83c-1.01-.06-2.03-.1-3.07-.1-12.16,0-22.37,4.2-30.62,12.59-8.25,8.39-12.37,18.81-12.37,31.25s4.12,22.86,12.37,31.25c8.25,8.39,18.45,12.59,30.62,12.59s22.25-4.1,30.26-12.3v10.89h14.42v-42.44h-14.42Z"/></svg>