<svg version="1.2" xmlns="http://www.w3.org/2000/svg" viewBox="0 0 541 233" width="541" height="233">
	<title>logo-ARPA-Lombardia-svg</title>
	<style>
		.s0 { fill: #002d73 } 
		.s1 { fill: #007934 } 
		.s2 { fill: none;stroke: #007934;stroke-width: .5 } 
		.s3 { fill: #002c73 } 
		.s4 { fill: #007833 } 
		.s5 { fill: #7e787b } 
	</style>
	<path id="Layer" class="s0" d="m16.5 57.5l72.6 130h-25.4l-14.5-26.7h-47.4v-19.8h36.1l-35.8-64.5-0.4 0.7v-19.7z"/>
	<path id="Layer" class="s0" d="m133 138.6l32 49h-24.5l-32.3-47.9h-29.1v-19.8h40.9q24.3 0 24.3-20.6 0-22.1-26.2-22.1h-39v-19.8h44.1q19.9 0 31.3 11.3 11.4 11.3 11.4 30.6 0 16.9-9.3 27.2-8.6 9.6-23.6 12.1z"/>
	<path id="Layer" class="s1" d="m197.8 187.6h-19.9v-67.3h37.2q24.5 0 24.5-20.8 0-22.1-25.9-22.1h-35.8v-20h40.9q19.5 0 31 11.3 11.4 11.4 11.4 30.5 0 19.9-11.9 30.5-11.8 10.5-34.6 10.5h-16.9z"/>
	<path id="Layer" class="s1" d="m323.1 140.8l0.1 19.9h-46.9l-14.7 27h-25.4l72.8-130.3h13.5l0.1 20.3-35 63.1z"/>
	<g id="Layer">
		<path id="Layer" fill-rule="evenodd" class="s0" d="m0.2 214.5l6.3-19.2h2.3l6.7 19.2h-2.5l-1.9-5.8h-6.8l-1.8 5.8zm4.7-7.9h5.5l-1.7-5.3q-0.8-2.4-1.1-4-0.3 1.9-0.9 3.7z"/>
		<path id="Layer" fill-rule="evenodd" class="s0" d="m17.1 215.7l2 0.3q0.1 1.1 0.7 1.6 0.7 0.6 2 0.6 1.4 0 2.2-0.6 0.7-0.7 1-1.9 0.1-0.7 0.1-3-1.3 1.8-3.3 1.8-2.4 0-3.7-2-1.4-2.1-1.4-5 0-2 0.6-3.7 0.7-1.7 1.8-2.6 1.2-0.9 2.8-0.9 2.1 0 3.4 2v-1.7h1.9v12q0 3.3-0.6 4.7-0.6 1.3-1.8 2.1-1.2 0.8-3 0.8-2.1 0-3.4-1.1-1.3-1.2-1.3-3.4zm1.7-8.4q0 2.8 0.9 4 0.9 1.3 2.3 1.3 1.4 0 2.4-1.3 0.9-1.2 0.9-3.9 0-2.6-1-3.9-0.9-1.3-2.3-1.3-1.3 0-2.3 1.3-0.9 1.3-0.9 3.8z"/>
		<path id="Layer" fill-rule="evenodd" class="s0" d="m38.8 210l2.1 0.3q-0.5 2.2-1.8 3.4-1.3 1.1-3.4 1.1-2.6 0-4.1-1.8-1.5-1.9-1.5-5.3 0-3.5 1.5-5.5 1.6-1.9 4-1.9 2.4 0 3.9 1.9 1.5 1.9 1.5 5.3 0 0.2 0 0.7h-8.8q0.1 2.3 1.1 3.5 1 1.2 2.4 1.2 1.1 0 1.9-0.7 0.8-0.7 1.2-2.2zm-6.5-3.8h6.6q-0.2-1.7-0.8-2.6-0.9-1.4-2.5-1.4-1.3 0-2.3 1.1-0.9 1.1-1 2.9z"/>
		<path id="Layer" class="s0" d="m44 214.5v-13.9h1.8v2q1.3-2.3 3.8-2.3 1 0 1.9 0.4 0.9 0.5 1.4 1.2 0.4 0.8 0.6 1.8 0.1 0.6 0.1 2.3v8.5h-2v-8.4q0-1.5-0.2-2.2-0.3-0.7-0.9-1.1-0.5-0.5-1.3-0.5-1.3 0-2.3 1-0.9 0.9-0.9 3.6v7.6c0 0-2 0-2 0z"/>
		<path id="Layer" class="s0" d="m56.2 214.5v-1.9l7.5-10.2q-1.3 0.1-2.2 0.1h-4.9v-1.9h9.7v1.6l-6.4 8.8-1.2 1.6q1.3-0.1 2.5-0.1h5.5v2c0 0-10.5 0-10.5 0z"/>
		<path id="Layer" class="s0" d="m69.2 198v-2.7h2v2.7zm0 16.5v-13.9h2v13.9z"/>
		<path id="Layer" fill-rule="evenodd" class="s0" d="m82.6 212.8q-1.1 1.1-2.2 1.6-1 0.4-2.2 0.4-1.9 0-3-1.1-1-1.1-1-2.8 0-1.1 0.4-1.9 0.4-0.9 1-1.4 0.7-0.5 1.5-0.7 0.6-0.2 1.7-0.4 2.5-0.3 3.6-0.8 0-0.5 0-0.6 0-1.5-0.5-2.1-0.8-0.8-2.3-0.8-1.4 0-2.1 0.6-0.7 0.6-1 2.1l-2-0.3q0.3-1.5 0.9-2.4 0.6-0.9 1.8-1.4 1.1-0.5 2.7-0.5 1.5 0 2.4 0.4 1 0.4 1.4 1.1 0.5 0.6 0.6 1.6 0.1 0.6 0.1 2.1v3.2q0 3.3 0.2 4.2 0.1 0.8 0.5 1.6h-2.1q-0.3-0.7-0.4-1.7zm-0.2-5.3q-1.1 0.6-3.3 0.9-1.2 0.2-1.7 0.5-0.5 0.3-0.8 0.8-0.3 0.5-0.3 1.1 0 0.9 0.6 1.6 0.6 0.6 1.8 0.6 1.2 0 2.1-0.6 0.9-0.6 1.3-1.6 0.3-0.8 0.3-2.4z"/>
		<path id="Layer" fill-rule="evenodd" class="s0" d="m93.9 214.5v-19.2h7.3q2.2 0 3.3 0.5 1.1 0.5 1.8 1.8 0.7 1.4 0.7 2.9 0 2.1-1.1 3.5-1.2 1.4-3.5 1.8 0.9 0.5 1.3 0.9 0.9 1.1 1.8 2.6l2.8 5.2h-2.7l-2.1-4q-1-1.7-1.6-2.6-0.6-0.9-1.1-1.3-0.5-0.4-1-0.5-0.4-0.1-1.2-0.1h-2.5v8.5c0 0-2.2 0-2.2 0zm2.2-10.7h4.6q1.5 0 2.4-0.4 0.8-0.3 1.2-1.1 0.5-0.8 0.5-1.8 0-1.3-0.9-2.2-0.8-0.9-2.6-0.9h-5.2c0 0 0 6.4 0 6.4z"/>
		<path id="Layer" fill-rule="evenodd" class="s0" d="m118.8 210l2.1 0.3q-0.5 2.2-1.9 3.4-1.3 1.1-3.3 1.1-2.6 0-4.2-1.8-1.5-1.9-1.5-5.3 0-3.5 1.6-5.5 1.5-1.9 3.9-1.9 2.4 0 3.9 1.9 1.5 1.9 1.5 5.3 0 0.2 0 0.7h-8.8q0.1 2.3 1.1 3.5 1 1.2 2.5 1.2 1.1 0 1.9-0.7 0.7-0.7 1.2-2.2zm-6.6-3.8h6.6q-0.1-1.7-0.7-2.6-1-1.4-2.5-1.4-1.4 0-2.4 1.1-0.9 1.1-1 2.9z"/>
		<path id="Layer" fill-rule="evenodd" class="s0" d="m123.6 215.7l1.9 0.3q0.1 1.1 0.7 1.6 0.7 0.6 2 0.6 1.4 0 2.2-0.6 0.7-0.7 1-1.9 0.2-0.7 0.2-3-1.4 1.8-3.3 1.8-2.5 0-3.8-2-1.3-2.1-1.3-5 0-2 0.6-3.7 0.6-1.7 1.8-2.6 1.1-0.9 2.7-0.9 2.1 0 3.4 2v-1.7h1.9v12q0 3.3-0.6 4.7-0.5 1.3-1.7 2.1-1.3 0.8-3 0.8-2.2 0-3.5-1.1-1.3-1.2-1.2-3.4zm1.6-8.4q0 2.8 1 4 0.9 1.3 2.3 1.3 1.4 0 2.3-1.3 0.9-1.2 0.9-3.9 0-2.6-0.9-3.9-1-1.3-2.4-1.3-1.3 0-2.2 1.3-1 1.3-1 3.8z"/>
		<path id="Layer" class="s0" d="m137.2 198v-2.7h2v2.7zm0 16.5v-13.9h2v13.9z"/>
		<path id="Layer" fill-rule="evenodd" class="s0" d="m142.1 207.6q0-3.9 1.8-5.8 1.5-1.5 3.7-1.5 2.5 0 4 1.9 1.6 1.8 1.6 5.2 0 2.7-0.7 4.2-0.7 1.5-2 2.4-1.3 0.8-2.9 0.8-2.5 0-4-1.8-1.5-1.9-1.5-5.4zm2 0q0 2.6 1 4 1 1.3 2.5 1.3 1.5 0 2.5-1.3 1-1.4 1-4.1 0-2.6-1-3.9-1-1.4-2.5-1.4-1.5 0-2.5 1.4-1 1.3-1 4z"/>
		<path id="Layer" class="s0" d="m156.1 214.5v-13.9h1.8v2q1.3-2.3 3.8-2.3 1 0 1.9 0.4 0.9 0.5 1.4 1.2 0.4 0.8 0.6 1.8 0.1 0.6 0.1 2.3v8.5h-2v-8.4q0-1.5-0.2-2.2-0.3-0.7-0.9-1.1-0.6-0.5-1.4-0.5-1.3 0-2.2 1-0.9 0.9-0.9 3.6v7.6c0 0-2 0-2 0z"/>
		<path id="Layer" fill-rule="evenodd" class="s0" d="m177 212.8q-1.1 1.1-2.1 1.6-1 0.4-2.2 0.4-2 0-3-1.1-1-1.1-1-2.8 0-1.1 0.3-1.9 0.4-0.9 1.1-1.4 0.6-0.5 1.4-0.7 0.6-0.2 1.8-0.4 2.4-0.3 3.6-0.8 0-0.5 0-0.6 0-1.5-0.6-2.1-0.7-0.8-2.3-0.8-1.4 0-2 0.6-0.7 0.6-1 2.1l-2-0.3q0.3-1.5 0.9-2.4 0.6-0.9 1.8-1.4 1.1-0.5 2.6-0.5 1.5 0 2.5 0.4 0.9 0.4 1.4 1.1 0.4 0.6 0.6 1.6 0.1 0.6 0.1 2.1v3.2q0 3.3 0.1 4.2 0.2 0.8 0.5 1.6h-2.1q-0.3-0.7-0.4-1.7zm-0.1-5.3q-1.1 0.6-3.3 0.9-1.2 0.2-1.7 0.5-0.6 0.3-0.8 0.8-0.3 0.5-0.3 1.1 0 0.9 0.6 1.6 0.6 0.6 1.8 0.6 1.1 0 2-0.6 0.9-0.6 1.4-1.6 0.3-0.8 0.3-2.4c0 0 0-0.9 0-0.9z"/>
		<path id="Layer" class="s0" d="m182.5 214.5v-19.2h2v19.2z"/>
		<path id="Layer" fill-rule="evenodd" class="s0" d="m196.3 210l2.1 0.3q-0.5 2.2-1.8 3.4-1.4 1.1-3.4 1.1-2.6 0-4.1-1.8-1.5-1.9-1.5-5.3 0-3.5 1.5-5.5 1.5-1.9 4-1.9 2.3 0 3.8 1.9 1.6 1.9 1.6 5.3 0 0.2-0.1 0.7h-8.8q0.1 2.3 1.1 3.5 1 1.2 2.5 1.2 1.1 0 1.9-0.7 0.8-0.7 1.2-2.2zm-6.6-3.8h6.6q-0.1-1.7-0.7-2.6-1-1.4-2.5-1.4-1.4 0-2.3 1.1-1 1.1-1.1 2.9z"/>
		<path id="Layer" fill-rule="evenodd" class="s0" d="m207 219.9v-19.3h1.8v1.8q0.7-1.1 1.5-1.6 0.8-0.5 2-0.5 1.5 0 2.6 0.9 1.2 0.9 1.8 2.6 0.6 1.7 0.6 3.7 0 2.1-0.7 3.8-0.6 1.7-1.9 2.6-1.2 0.9-2.6 0.9-1 0-1.8-0.5-0.8-0.5-1.3-1.2v6.8zm1.8-12.3q0 2.7 1 4 0.9 1.3 2.2 1.3 1.3 0 2.3-1.3 0.9-1.4 0.9-4.2 0-2.6-0.9-3.9-0.9-1.4-2.2-1.4-1.3 0-2.3 1.4-1 1.5-1 4.1z"/>
		<path id="Layer" fill-rule="evenodd" class="s0" d="m228.4 210l2 0.3q-0.5 2.2-1.8 3.4-1.3 1.1-3.4 1.1-2.6 0-4.1-1.8-1.5-1.9-1.5-5.3 0-3.5 1.5-5.5 1.6-1.9 4-1.9 2.4 0 3.9 1.9 1.5 1.9 1.5 5.3 0 0.2 0 0.7h-8.8q0.1 2.3 1.1 3.5 1 1.2 2.4 1.2 1.1 0 1.9-0.7 0.8-0.7 1.3-2.2zm-6.6-3.8h6.6q-0.2-1.7-0.8-2.6-0.9-1.4-2.5-1.4-1.3 0-2.3 1.1-0.9 1.1-1 2.9z"/>
		<path id="Layer" class="s0" d="m233.5 214.5v-13.9h1.8v2.1q0.7-1.5 1.3-1.9 0.6-0.5 1.3-0.5 1 0 2 0.7l-0.7 2.2q-0.7-0.5-1.4-0.5-0.7 0-1.2 0.5-0.5 0.5-0.8 1.3-0.3 1.2-0.3 2.7v7.3z"/>
		<path id="Layer" class="s0" d="m247.2 214.5v-19.2h2v19.2z"/>
		<path id="Layer" fill-rule="evenodd" class="s0" d="m260.6 212.8q-1.1 1.1-2.2 1.6-1 0.4-2.2 0.4-1.9 0-3-1.1-1-1.1-1-2.8 0-1.1 0.4-1.9 0.4-0.9 1-1.4 0.6-0.5 1.4-0.7 0.6-0.2 1.8-0.4 2.5-0.3 3.6-0.8 0-0.5 0-0.6 0-1.5-0.6-2.1-0.7-0.8-2.2-0.8-1.5 0-2.1 0.6-0.7 0.6-1 2.1l-2-0.3q0.3-1.5 0.9-2.4 0.6-0.9 1.8-1.4 1.1-0.5 2.6-0.5 1.6 0 2.5 0.4 1 0.4 1.4 1.1 0.4 0.6 0.6 1.6 0.1 0.6 0.1 2.1v3.2q0 3.3 0.2 4.2 0.1 0.8 0.5 1.6h-2.1q-0.3-0.7-0.4-1.7zm-0.2-5.3q-1.1 0.6-3.3 0.9-1.2 0.2-1.7 0.5-0.5 0.3-0.8 0.8-0.3 0.5-0.3 1.1 0 0.9 0.6 1.6 0.6 0.6 1.8 0.6 1.1 0 2.1-0.6 0.9-0.6 1.3-1.6 0.3-0.8 0.3-2.4z"/>
		<path id="Layer" fill-rule="evenodd" class="s0" d="m271.9 214.5v-19.2h6.2q1.6 0 2.4 0.2 1.2 0.2 2 0.9 0.9 0.6 1.4 1.8 0.5 1.2 0.5 2.7 0 2.4-1.4 4.1-1.3 1.7-4.8 1.7h-4.1v7.8c0 0-2.2 0-2.2 0zm2.2-10.1h4.2q2.1 0 2.9-0.9 0.9-0.9 0.9-2.6 0-1.2-0.5-2-0.5-0.9-1.4-1.2-0.5-0.1-2-0.1h-4.1z"/>
		<path id="Layer" class="s0" d="m287.4 214.5v-13.9h1.8v2.1q0.7-1.5 1.3-1.9 0.6-0.5 1.3-0.5 1 0 2 0.7l-0.7 2.2q-0.7-0.5-1.4-0.5-0.7 0-1.2 0.5-0.5 0.5-0.8 1.3-0.3 1.2-0.3 2.7v7.3z"/>
		<path id="Layer" fill-rule="evenodd" class="s0" d="m294.8 207.6q0-3.9 1.9-5.8 1.5-1.5 3.7-1.5 2.4 0 4 1.9 1.5 1.8 1.5 5.2 0 2.7-0.7 4.2-0.7 1.5-2 2.4-1.3 0.8-2.8 0.8-2.5 0-4-1.8-1.6-1.9-1.6-5.4zm2.1 0q0 2.6 1 4 1 1.3 2.5 1.3 1.5 0 2.5-1.3 1-1.4 1-4.1 0-2.6-1-3.9-1-1.4-2.5-1.4-1.5 0-2.5 1.4-1 1.3-1 4z"/>
		<path id="Layer" class="s0" d="m313.2 212.4l0.3 2.1q-0.9 0.2-1.5 0.2-1.1 0-1.7-0.4-0.6-0.4-0.9-1.1-0.2-0.6-0.2-2.8v-8h-1.5v-1.8h1.5v-3.5l2-1.4v4.9h2v1.8h-2v8.2q0 1 0.1 1.3 0.1 0.3 0.3 0.4 0.3 0.2 0.7 0.2 0.4 0 0.9-0.1z"/>
		<path id="Layer" fill-rule="evenodd" class="s0" d="m323.8 210l2.1 0.3q-0.5 2.2-1.8 3.4-1.3 1.1-3.4 1.1-2.6 0-4.1-1.8-1.5-1.9-1.5-5.3 0-3.5 1.5-5.5 1.5-1.9 4-1.9 2.4 0 3.9 1.9 1.5 1.9 1.5 5.3 0 0.2 0 0.7h-8.9q0.2 2.3 1.1 3.5 1 1.2 2.5 1.2 1.1 0 1.9-0.7 0.8-0.7 1.2-2.2zm-6.5-3.8h6.6q-0.2-1.7-0.8-2.6-1-1.4-2.5-1.4-1.4 0-2.3 1.1-0.9 1.1-1 2.9z"/>
		<path id="Layer" class="s0" d="m327.9 214.5v-1.9l7.6-10.2q-1.3 0.1-2.3 0.1h-4.8v-1.9h9.6v1.6l-6.4 8.8-1.2 1.6q1.3-0.1 2.5-0.1h5.5v2c0 0-10.5 0-10.5 0z"/>
		<path id="Layer" class="s0" d="m341 198v-2.7h2v2.7zm0 16.5v-13.9h2v13.9z"/>
		<path id="Layer" fill-rule="evenodd" class="s0" d="m345.9 207.6q0-3.9 1.8-5.8 1.5-1.5 3.7-1.5 2.4 0 4 1.9 1.5 1.8 1.5 5.2 0 2.7-0.7 4.2-0.6 1.5-1.9 2.4-1.4 0.8-2.9 0.8-2.5 0-4-1.8-1.5-1.9-1.5-5.4zm2 0q0 2.6 1 4 1 1.3 2.5 1.3 1.5 0 2.5-1.3 1-1.4 1-4.1 0-2.6-1-3.9-1-1.4-2.5-1.4-1.5 0-2.5 1.4-1 1.3-1 4z"/>
		<path id="Layer" class="s0" d="m359.8 214.5v-13.9h1.8v2q1.4-2.3 3.8-2.3 1.1 0 2 0.4 0.9 0.5 1.3 1.2 0.5 0.8 0.6 1.8 0.2 0.6 0.2 2.3v8.5h-2v-8.4q0-1.5-0.3-2.2-0.2-0.7-0.8-1.1-0.6-0.5-1.4-0.5-1.3 0-2.2 1-0.9 0.9-1 3.6v7.6c0 0-2 0-2 0z"/>
		<path id="Layer" fill-rule="evenodd" class="s0" d="m381.2 210l2.1 0.3q-0.5 2.2-1.9 3.4-1.3 1.1-3.3 1.1-2.6 0-4.1-1.8-1.6-1.9-1.6-5.3 0-3.5 1.6-5.5 1.5-1.9 4-1.9 2.3 0 3.8 1.9 1.5 1.9 1.5 5.3 0 0.2 0 0.7h-8.8q0.1 2.3 1.1 3.5 1 1.2 2.5 1.2 1.1 0 1.9-0.7 0.7-0.7 1.2-2.2zm-6.6-3.8h6.6q-0.1-1.7-0.7-2.6-1-1.4-2.5-1.4-1.4 0-2.3 1.1-1 1.1-1.1 2.9z"/>
		<path id="Layer" fill-rule="evenodd" class="s0" d="m399.1 214.5v-1.7q-1.1 2-3.3 2-1.4 0-2.6-0.9-1.2-0.9-1.8-2.5-0.7-1.7-0.7-3.8 0-2.1 0.6-3.8 0.6-1.7 1.8-2.6 1.1-0.9 2.6-0.9 1.1 0 1.9 0.5 0.8 0.5 1.4 1.4v-6.9h2v19.2c0 0-1.9 0-1.9 0zm-6.3-6.9q0 2.7 0.9 4 1 1.3 2.3 1.3 1.3 0 2.2-1.3 0.9-1.2 0.9-3.8 0-2.9-0.9-4.2-0.9-1.4-2.3-1.4-1.3 0-2.2 1.3-0.9 1.3-0.9 4.1z"/>
		<path id="Layer" fill-rule="evenodd" class="s0" d="m412.8 210l2.1 0.3q-0.5 2.2-1.9 3.4-1.3 1.1-3.4 1.1-2.5 0-4.1-1.8-1.5-1.9-1.5-5.3 0-3.5 1.6-5.5 1.5-1.9 3.9-1.9 2.4 0 3.9 1.9 1.5 1.9 1.5 5.3 0 0.2 0 0.7h-8.8q0.1 2.3 1.1 3.5 1 1.2 2.5 1.2 1.1 0 1.8-0.7 0.8-0.7 1.3-2.2zm-6.6-3.8h6.6q-0.1-1.7-0.8-2.6-0.9-1.4-2.4-1.4-1.4 0-2.4 1.1-0.9 1.1-1 2.9z"/>
		<path id="Layer" class="s0" d="m417.9 214.5v-19.2h2v19.2z"/>
		<path id="Layer" class="s0" d="m423.5 214.5v-19.2h2v19.2z"/>
		<path id="Layer" class="s0" d="m429.1 197.8v-2.7h2.1v2.2q0 1.7-0.3 2.5-0.5 1.1-1.5 1.6l-0.5-0.9q0.6-0.3 0.9-0.9 0.3-0.7 0.3-1.8c0 0-1 0-1 0z"/>
		<path id="Layer" fill-rule="evenodd" class="s0" d="m433.3 214.5l6.3-19.2h2.3l6.7 19.2h-2.5l-1.9-5.8h-6.8l-1.8 5.8zm4.7-7.9h5.5l-1.7-5.3q-0.7-2.4-1.1-4-0.3 1.9-0.9 3.7z"/>
		<path id="Layer" class="s0" d="m450.6 214.5v-13.9h1.8v2q0.6-1.1 1.5-1.7 0.9-0.6 2.1-0.6 1.3 0 2.2 0.6 0.8 0.7 1.1 1.8 1.4-2.4 3.7-2.4 1.8 0 2.7 1.1 0.9 1.2 0.9 3.6v9.5h-1.9v-8.7q0-1.5-0.2-2.1-0.2-0.6-0.8-1-0.5-0.4-1.2-0.4-1.2 0-2 1-0.8 1-0.8 3.1v8.1h-2v-9q0-1.6-0.5-2.4-0.5-0.8-1.6-0.8-0.9 0-1.6 0.6-0.7 0.5-1.1 1.5-0.3 1-0.3 2.9v7.2c0 0-2 0-2 0z"/>
		<path id="Layer" fill-rule="evenodd" class="s0" d="m472 214.5h-1.8v-19.2h2v6.9q1.3-1.9 3.2-1.9 1.1 0 2.1 0.5 1 0.5 1.6 1.5 0.6 0.9 1 2.2 0.3 1.3 0.3 2.9 0 3.5-1.5 5.5-1.5 1.9-3.6 1.9-2.1 0-3.3-2zm0-7.1q0 2.5 0.6 3.6 0.9 1.9 2.6 1.9 1.3 0 2.2-1.4 1-1.3 1-4 0-2.7-0.9-4-1-1.3-2.3-1.3-1.3 0-2.2 1.3-1 1.4-1 3.9z"/>
		<path id="Layer" class="s0" d="m483.5 198v-2.7h2v2.7zm0 16.5v-13.9h2v13.9z"/>
		<path id="Layer" fill-rule="evenodd" class="s0" d="m497.2 210l2 0.3q-0.4 2.2-1.8 3.4-1.3 1.1-3.4 1.1-2.6 0-4.1-1.8-1.5-1.9-1.5-5.3 0-3.5 1.5-5.5 1.6-1.9 4-1.9 2.4 0 3.9 1.9 1.5 1.9 1.5 5.3 0 0.2 0 0.7h-8.8q0.1 2.3 1.1 3.5 1 1.2 2.5 1.2 1.1 0 1.8-0.7 0.8-0.7 1.3-2.2zm-6.6-3.8h6.6q-0.1-1.7-0.8-2.6-0.9-1.4-2.4-1.4-1.4 0-2.4 1.1-0.9 1.1-1 2.9z"/>
		<path id="Layer" class="s0" d="m502.3 214.5v-13.9h1.8v2q1.3-2.3 3.8-2.3 1.1 0 2 0.4 0.9 0.5 1.3 1.2 0.4 0.8 0.6 1.8 0.1 0.6 0.1 2.3v8.5h-2v-8.4q0-1.5-0.2-2.2-0.2-0.7-0.8-1.1-0.6-0.5-1.4-0.5-1.3 0-2.2 1-1 0.9-1 3.6v7.6c0 0-2 0-2 0z"/>
		<path id="Layer" class="s0" d="m520 212.4l0.2 2.1q-0.8 0.2-1.5 0.2-1.1 0-1.7-0.4-0.6-0.4-0.8-1.1-0.3-0.6-0.3-2.8v-8h-1.4v-1.8h1.4v-3.5l2-1.4v4.9h2.1v1.8h-2.1v8.2q0 1 0.1 1.3 0.1 0.3 0.4 0.4 0.2 0.2 0.7 0.2 0.3 0 0.9-0.1z"/>
		<path id="Layer" fill-rule="evenodd" class="s0" d="m530.6 210l2 0.3q-0.4 2.2-1.8 3.4-1.3 1.1-3.4 1.1-2.5 0-4.1-1.8-1.5-1.9-1.5-5.3 0-3.5 1.6-5.5 1.5-1.9 3.9-1.9 2.4 0 3.9 1.9 1.5 1.9 1.5 5.3 0 0.2 0 0.7h-8.8q0.1 2.3 1.1 3.5 1 1.2 2.5 1.2 1.1 0 1.8-0.7 0.8-0.7 1.3-2.2zm-6.6-3.8h6.6q-0.1-1.7-0.8-2.6-0.9-1.4-2.4-1.4-1.4 0-2.4 1.1-0.9 1.1-1 2.9z"/>
	</g>
	<g id="Layer">
		<path id="Layer" class="s1" d="m334.2 160.5v-20.1h3.3v17.7h12.2v2.4z"/>
		<path id="Layer" fill-rule="evenodd" class="s1" d="m352.6 150.7q0-5 3.3-7.8 3.3-2.9 8.6-2.9 3.4 0 6.2 1.4 2.7 1.3 4.2 3.7 1.4 2.3 1.4 5.4 0 3-1.5 5.4-1.5 2.4-4.3 3.7-2.8 1.2-6 1.2-3.5 0-6.3-1.4-2.7-1.3-4.2-3.7-1.4-2.4-1.4-5zm3.4 0q0 3.7 2.4 5.7 2.4 2.1 6 2.1 3.7 0 6.1-2.1 2.4-2.1 2.4-6 0-2.4-1-4.2-1-1.9-3-2.9-2-1-4.4-1-3.5 0-6 2-2.5 1.9-2.5 6.4z"/>
		<path id="Layer" class="s1" d="m380.4 160.5v-20.1h5l5.8 14.2q0.8 2 1.2 3 0.4-1.1 1.3-3.2l5.9-14h4.4v20.1h-3.1v-16.8l-7.2 16.8h-3l-7.1-17.1v17.1z"/>
		<path id="Layer" fill-rule="evenodd" class="s1" d="m409.2 160.5v-20.1h9.3q2.8 0 4.5 0.6 1.8 0.6 2.7 1.9 1 1.2 1 2.6 0 1.3-0.9 2.4-0.8 1.2-2.6 1.9 2.3 0.5 3.5 1.8 1.2 1.3 1.2 3 0 1.5-0.7 2.7-0.8 1.2-1.8 1.8-1.1 0.7-2.8 1-1.6 0.4-4 0.4zm3.3-11.7h5.4q2.2 0 3.1-0.2 1.3-0.3 1.9-1 0.6-0.7 0.6-1.8 0-1-0.6-1.7-0.6-0.8-1.7-1.1-1.1-0.2-3.7-0.2h-5zm0 9.2h6.2q1.6 0 2.2-0.1 1.2-0.1 1.9-0.5 0.8-0.4 1.3-1.1 0.5-0.8 0.5-1.7 0-1.1-0.8-2-0.7-0.8-1.9-1.1-1.3-0.4-3.6-0.4h-5.8c0 0 0 6.9 0 6.9z"/>
		<path id="Layer" fill-rule="evenodd" class="s1" d="m429.7 160.5l9.5-20.1h3.5l10.2 20.1h-3.8l-2.9-6.1h-10.3l-2.7 6.1zm7.1-8.3h8.4l-2.6-5.5q-1.2-2.6-1.7-4.2-0.5 1.9-1.4 3.8z"/>
		<path id="Layer" fill-rule="evenodd" class="s1" d="m455.5 160.5v-20.1h11q3.3 0 5 0.5 1.8 0.6 2.8 1.9 1 1.4 1 3.1 0 2.1-1.7 3.6-1.7 1.4-5.2 1.8 1.3 0.5 1.9 1 1.5 1.1 2.8 2.7l4.3 5.5h-4.2l-3.2-4.2q-1.5-1.8-2.4-2.8-0.9-0.9-1.7-1.3-0.7-0.4-1.5-0.6-0.5 0-1.8 0h-3.8v8.9zm3.3-11.2h7q2.3 0 3.6-0.4 1.2-0.4 1.9-1.2 0.6-0.9 0.6-1.8 0-1.5-1.2-2.4-1.3-0.9-4.1-0.9h-7.8z"/>
		<path id="Layer" fill-rule="evenodd" class="s1" d="m480.5 160.5v-20.1h8.5q2.9 0 4.4 0.3 2.1 0.4 3.6 1.4 2 1.4 3 3.4 0.9 2.1 0.9 4.8 0 2.3-0.6 4.1-0.7 1.7-1.7 2.9-1 1.2-2.3 1.8-1.2 0.7-2.9 1-1.7 0.4-4 0.4c0 0-8.9 0-8.9 0zm3.2-2.4h5.3q2.5 0 3.9-0.4 1.4-0.3 2.2-1 1.2-1 1.8-2.6 0.7-1.5 0.7-3.8 0-3.2-1.3-4.9-1.3-1.7-3.1-2.2-1.3-0.4-4.3-0.4h-5.2z"/>
		<path id="Layer" class="s1" d="m506 160.5v-20.1h3.3v20.1z"/>
		<path id="Layer" fill-rule="evenodd" class="s1" d="m512.3 160.5l9.6-20.1h3.5l10.1 20.1h-3.7l-2.9-6.1h-10.4l-2.7 6.1zm7.2-8.3h8.4l-2.6-5.5q-1.2-2.6-1.8-4.2-0.5 1.9-1.3 3.8z"/>
	</g>
	<path id="Layer" class="s2" d="m0.6 224.8h533.5"/>
	<path id="Layer" class="s1" d=""/>
	<path id="Layer" class="s3" d="m-55-1h16.8v55.5h-16.8z"/>
	<path id="Layer" class="s4" d="m-55 70.8h16.8v71.3h-16.8z"/>
	<path id="Layer" class="s5" d="m-55 160.9h16.8v71.3h-16.8z"/>
</svg>